<?xml version="1.0"?>
<svg xmlns="http://www.w3.org/2000/svg" xmlns:xlink="http://www.w3.org/1999/xlink" xmlns:svgjs="http://svgjs.com/svgjs" version="1.1" width="512" height="512" x="0" y="0" viewBox="0 0 604.131 604.131" style="enable-background:new 0 0 512 512" xml:space="preserve" class=""><g>
<g xmlns="http://www.w3.org/2000/svg">
	<g>
		<path d="M545.492,136.868h-97.023V94.057c0-31.614-25.721-57.334-57.334-57.334H212.997c-31.614,0-57.334,25.719-57.334,57.334    v42.811H58.64c-32.059,0-58.14,26.082-58.14,58.14v314.26c0,32.059,26.082,58.141,58.14,58.141h486.852    c32.059,0,58.139-26.082,58.139-58.141v-314.26C603.631,162.949,577.551,136.868,545.492,136.868z M560.791,509.268    c0,8.451-6.85,15.301-15.299,15.301h-43.756V179.708h43.756c8.449,0,15.299,6.85,15.299,15.3V509.268z M43.34,509.268v-314.26    c0-8.45,6.85-15.3,15.3-15.3h43.755v344.861H58.64C50.19,524.568,43.34,517.719,43.34,509.268z M198.503,94.056    c0-7.856,6.637-14.494,14.494-14.494h178.138c7.857,0,14.494,6.638,14.494,14.494v42.811H198.503V94.056z M458.896,524.568    H145.235V179.708h313.662V524.568z" fill="#18fa18" data-original="#000000" style="" class=""/>
		<path d="M545.492,567.908H58.64C26.306,567.908,0,541.603,0,509.268v-314.26c0-32.334,26.306-58.64,58.64-58.64h96.522V94.057    c0-31.89,25.944-57.834,57.834-57.834h178.138c31.89,0,57.834,25.944,57.834,57.834v42.311h96.523    c32.333,0,58.639,26.306,58.639,58.64v314.26C604.131,541.603,577.825,567.908,545.492,567.908z M58.64,137.368    c-31.783,0-57.64,25.857-57.64,57.64v314.26c0,31.783,25.857,57.641,57.64,57.641h486.852c31.782,0,57.639-25.857,57.639-57.641    v-314.26c0-31.783-25.856-57.64-57.639-57.64h-97.523V94.057c0-31.338-25.496-56.834-56.834-56.834H212.997    c-31.338,0-56.834,25.496-56.834,56.834v43.311H58.64z M545.492,525.068h-44.256V179.208h44.256c8.712,0,15.799,7.088,15.799,15.8    v314.26C561.291,517.98,554.204,525.068,545.492,525.068z M502.236,524.068h43.256c8.16,0,14.799-6.64,14.799-14.801v-314.26    c0-8.161-6.639-14.8-14.799-14.8h-43.256V524.068z M459.396,525.068H144.735V179.208h314.662V525.068z M145.735,524.068h312.662    V180.208H145.735V524.068z M102.895,525.068H58.64c-8.712,0-15.8-7.088-15.8-15.801v-314.26c0-8.712,7.088-15.8,15.8-15.8h44.255    V525.068z M58.64,180.208c-8.161,0-14.8,6.639-14.8,14.8v314.26c0,8.161,6.639,14.801,14.8,14.801h43.255V180.208H58.64z     M406.129,137.367H198.003V94.056c0-8.127,6.866-14.994,14.994-14.994h178.138c8.128,0,14.994,6.867,14.994,14.994V137.367z     M199.003,136.367h206.126V94.056c0-7.585-6.408-13.994-13.994-13.994H212.997c-7.585,0-13.994,6.409-13.994,13.994V136.367z" fill="#18fa18" data-original="#000000" style="" class=""/>
	</g>
	<g>
		<path d="M217.353,373.559h62.421v62.42c0,11.83,9.59,21.42,21.42,21.42c11.83,0,21.419-9.59,21.419-21.42v-62.42h62.422    c11.828,0,21.42-9.59,21.42-21.42s-9.592-21.42-21.42-21.42h-62.422v-62.422c0-11.83-9.59-21.42-21.42-21.42    s-21.42,9.59-21.42,21.42v62.422h-62.42c-11.83,0-21.42,9.59-21.42,21.42S205.523,373.559,217.353,373.559z" fill="#18fa18" data-original="#000000" style="" class=""/>
		<path d="M301.194,457.898c-12.087,0-21.92-9.833-21.92-21.92v-61.92h-61.921c-12.087,0-21.92-9.833-21.92-21.92    s9.833-21.92,21.92-21.92h61.92v-61.922c0-12.087,9.833-21.92,21.92-21.92s21.92,9.833,21.92,21.92v61.922h61.922    c12.087,0,21.92,9.833,21.92,21.92s-9.833,21.92-21.92,21.92h-61.922v61.92C323.113,448.065,313.28,457.898,301.194,457.898z     M217.353,331.219c-11.535,0-20.92,9.385-20.92,20.92s9.385,20.92,20.92,20.92h62.921v62.92c0,11.535,9.385,20.92,20.92,20.92    c11.535,0,20.919-9.385,20.919-20.92v-62.92h62.922c11.535,0,20.92-9.385,20.92-20.92s-9.385-20.92-20.92-20.92h-62.922v-62.922    c0-11.535-9.385-20.92-20.92-20.92s-20.92,9.385-20.92,20.92v62.922H217.353z" fill="#18fa18" data-original="#000000" style="" class=""/>
	</g>
</g>
<g xmlns="http://www.w3.org/2000/svg">
</g>
<g xmlns="http://www.w3.org/2000/svg">
</g>
<g xmlns="http://www.w3.org/2000/svg">
</g>
<g xmlns="http://www.w3.org/2000/svg">
</g>
<g xmlns="http://www.w3.org/2000/svg">
</g>
<g xmlns="http://www.w3.org/2000/svg">
</g>
<g xmlns="http://www.w3.org/2000/svg">
</g>
<g xmlns="http://www.w3.org/2000/svg">
</g>
<g xmlns="http://www.w3.org/2000/svg">
</g>
<g xmlns="http://www.w3.org/2000/svg">
</g>
<g xmlns="http://www.w3.org/2000/svg">
</g>
<g xmlns="http://www.w3.org/2000/svg">
</g>
<g xmlns="http://www.w3.org/2000/svg">
</g>
<g xmlns="http://www.w3.org/2000/svg">
</g>
<g xmlns="http://www.w3.org/2000/svg">
</g>
</g></svg>
