<?xml version="1.0"?>
<svg xmlns="http://www.w3.org/2000/svg" xmlns:xlink="http://www.w3.org/1999/xlink" xmlns:svgjs="http://svgjs.com/svgjs" version="1.1" width="512" height="512" x="0" y="0" viewBox="0 0 510 510" style="enable-background:new 0 0 512 512" xml:space="preserve"><g><g xmlns="http://www.w3.org/2000/svg"><path d="m105 30c-57.897 0-105 47.103-105 105 0 33.801 16.059 63.917 40.942 83.135l20.917 158.773c2.178 19.364 15.488 34.955 33.141 40.703v62.389h30v-62.35c17.63-5.692 30.986-21.207 33.259-40.487l8.657-62.163h28.084v-30h-23.907l7.462-53.589c52.76-10.079 106.203-26.02 121.682-30.777l104.763 29.1v-189.468l-104.765 29.101c-23.199-7.122-131.753-39.367-195.235-39.367zm23.522 343.196-.048.375c-1.063 9.367-8.974 16.429-18.4 16.429-9.473 0-17.388-7.101-18.411-16.518l-18.22-138.33c9.965 3.147 20.565 4.848 31.557 4.848 12.734 0 27.266-1.296 42.546-3.419zm156.478-199.308c-31.392 9.366-125.794 36.112-180 36.112-41.355 0-75-33.645-75-75s33.645-75 75-75c54.076 0 148.579 26.751 180 36.116zm90 16.377-60-16.666v-77.198l60-16.666z" fill="#18fa18" data-original="#000000" style=""/><path d="m60 135c0 27.57 22.43 50 50 50s50-22.43 50-50-22.43-50-50-50-50 22.43-50 50zm50-20c11.028 0 20 8.972 20 20s-8.972 20-20 20-20-8.972-20-20 8.972-20 20-20z" fill="#18fa18" data-original="#000000" style=""/><path d="m435 180h45v30h-45z" fill="#18fa18" data-original="#000000" style=""/><path d="m435 120h75v30h-75z" fill="#18fa18" data-original="#000000" style=""/><path d="m435 60h45v30h-45z" fill="#18fa18" data-original="#000000" style=""/></g></g></svg>
