<?xml version="1.0"?>
<svg xmlns="http://www.w3.org/2000/svg" xmlns:xlink="http://www.w3.org/1999/xlink" xmlns:svgjs="http://svgjs.com/svgjs" version="1.1" width="512" height="512" x="0" y="0" viewBox="0 0 510 510" style="enable-background:new 0 0 512 512" xml:space="preserve" class=""><g><g xmlns="http://www.w3.org/2000/svg"><path d="m424.997 345c-17.898 0-26.34-3.973-36.115-8.572-11.383-5.357-24.285-11.428-48.889-11.428-24.603 0-37.504 6.071-48.887 11.428-9.774 4.6-18.216 8.572-36.113 8.572-17.896 0-26.337-3.973-36.111-8.572-11.382-5.357-24.283-11.428-48.886-11.428s-37.504 6.071-48.887 11.428c-9.774 4.6-18.215 8.572-36.112 8.572s-26.338-3.973-36.112-8.572c-11.382-5.357-24.282-11.428-48.885-11.428v30c17.896 0 26.337 3.973 36.111 8.572 11.383 5.357 24.284 11.428 48.887 11.428s37.503-6.071 48.886-11.428c9.774-4.6 18.216-8.572 36.112-8.572s26.337 3.973 36.111 8.572c11.383 5.357 24.284 11.428 48.886 11.428 24.603 0 37.504-6.071 48.887-11.428 9.774-4.6 18.216-8.572 36.112-8.572 17.898 0 26.34 3.973 36.115 8.572 11.384 5.357 24.286 11.428 48.89 11.428s37.505-6.071 48.888-11.428c9.775-4.599 18.217-8.572 36.115-8.572v-30c-24.604 0-37.506 6.071-48.889 11.428-9.775 4.599-18.216 8.572-36.114 8.572z" fill="#18fa18" data-original="#000000" style=""/><path d="m424.997 410c-17.898 0-26.34-3.973-36.115-8.572-11.383-5.357-24.285-11.428-48.889-11.428-24.603 0-37.504 6.071-48.887 11.428-9.774 4.6-18.216 8.572-36.113 8.572-17.896 0-26.337-3.973-36.111-8.572-11.382-5.357-24.283-11.428-48.886-11.428s-37.504 6.071-48.887 11.428c-9.774 4.6-18.215 8.572-36.112 8.572s-26.338-3.973-36.112-8.572c-11.382-5.357-24.282-11.428-48.885-11.428v30c17.896 0 26.337 3.973 36.111 8.572 11.383 5.357 24.284 11.428 48.887 11.428s37.503-6.071 48.886-11.428c9.774-4.6 18.216-8.572 36.112-8.572s26.337 3.973 36.111 8.572c11.383 5.357 24.284 11.428 48.886 11.428 24.603 0 37.504-6.071 48.887-11.428 9.774-4.6 18.216-8.572 36.112-8.572 17.898 0 26.34 3.973 36.115 8.572 11.384 5.357 24.286 11.428 48.89 11.428s37.505-6.071 48.888-11.428c9.775-4.599 18.217-8.572 36.115-8.572v-30c-24.604 0-37.506 6.071-48.889 11.428-9.775 4.599-18.216 8.572-36.114 8.572z" fill="#18fa18" data-original="#000000" style=""/><path d="m510 175v-52.5c0-28.948-23.551-52.5-52.5-52.5s-52.5 23.552-52.5 52.5v22.5h-30v-22.5c0-28.948-23.551-52.5-52.5-52.5s-52.5 23.552-52.5 52.5v22.5h-270v30h270v108.815c-4.235.746-9.099 1.185-15.007 1.185-17.896 0-26.337-3.973-36.111-8.572-11.382-5.357-24.283-11.428-48.886-11.428s-37.504 6.071-48.887 11.428c-9.774 4.6-18.215 8.572-36.112 8.572s-26.338-3.973-36.112-8.572c-11.382-5.357-24.282-11.428-48.885-11.428v30c17.896 0 26.337 3.973 36.111 8.572 11.383 5.357 24.284 11.428 48.887 11.428s37.503-6.071 48.886-11.428c9.774-4.6 18.216-8.572 36.112-8.572s26.337 3.973 36.111 8.572c11.383 5.357 24.284 11.428 48.886 11.428 24.603 0 37.504-6.071 48.887-11.428 9.774-4.6 18.216-8.572 36.112-8.572 17.898 0 26.34 3.973 36.115 8.572 11.384 5.357 24.286 11.428 48.89 11.428s37.505-6.071 48.888-11.428c9.775-4.599 18.217-8.572 36.115-8.572v-30c-24.604 0-37.506 6.071-48.889 11.428-7.745 3.645-14.672 6.887-26.111 8.08v-109.508zm-75-52.5c0-12.406 10.093-22.5 22.5-22.5s22.5 10.094 22.5 22.5v22.5h-45zm-135 0c0-12.406 10.093-22.5 22.5-22.5s22.5 10.094 22.5 22.5v22.5h-45zm105 52.5v30h-105v-30zm-65.007 90c-18.508 0-30.393 3.436-39.993 7.419v-37.419h105v47.729c-6.076-1.588-10.915-3.852-16.119-6.301-11.382-5.357-24.284-11.428-48.888-11.428z" fill="#18fa18" data-original="#000000" style=""/></g></g></svg>
